#!OML:ASF I:\Actors\actors\Patient Classification 1\Patient 1\Session 1\Subject1.ASF
:FULLY-SPECIFIED
:DEGREES
611
root -0.956247 17.7463 8.42814 10.8955 7.10784 -8.00953
lowerback 7.27166 2.33488 6.62034
upperback -13.4825 4.55776 0.698068
thorax -19.261 1.21398 -3.9272
lowerneck -19.0052 -10.8977 -3.96805
upperneck 17.8078 -18.3519 17.6912
head 11.1198 -6.77816 3.96004
rclavicle -1.87852e-014 2.74323e-014
rhumerus 98.2614 33.5133 -67.6235
rradius 90.6584
rwrist 35.3629
rhand -22.7306 -21.3566
rfingers 7.12502
rthumb 3.70323 308.696
lclavicle -1.87852e-014 2.74323e-014
lhumerus 87.9204 -9.66577 90.377
lradius 109.616
lwrist 42.4227
lhand -29.4665 -25.3782
lfingers 7.12502
lthumb -2.80223 4.58315
rfemur -0.862684 25.2101 28.6023
rtibia -0.803226
rfoot -14.0569 -26.6307
rtoes 8.52301
lfemur -0.261548 -41.8542 -8.30195
ltibia -2.86441
lfoot -14.9372 44.9769
ltoes -0.231168
612
root -0.946362 17.7564 8.36348 11.0308 7.25023 -8.10177
lowerback 7.95897 2.09177 6.24857
upperback -13.0467 4.23114 0.988877
thorax -19.23 1.15392 -3.34033
lowerneck -19.253 -10.646 -3.54366
upperneck 17.4013 -17.9235 17.3669
head 10.8822 -6.6092 3.84546
rclavicle 4.00551e-014 -8.34896e-015
rhumerus 95.7512 33.5089 -72.6745
rradius 85.9379
rwrist 34.038
rhand -22.3712 -22.4829
rfingers 7.12502
rthumb 4.05033 307.576
lclavicle 4.00551e-014 -8.34896e-015
lhumerus 87.2558 -10.9515 91.2907
lradius 102.878
lwrist 42.5738
lhand -28.2401 -25.0865
lfingers 7.12502
lthumb -1.61778 4.88714
rfemur -1.41354 24.9369 28.4226
rtibia -0.668494
rfoot -13.7832 -26.5072
rtoes 8.48705
lfemur -1.02843 -41.7269 -7.75989
ltibia -2.69429
lfoot -14.6289 44.781
ltoes -0.058275
613
root -0.936921 17.7674 8.29382 11.1297 7.46395 -8.1783
lowerback 8.60143 1.86896 5.84452
upperback -12.5536 3.9164 1.28517
thorax -19.0859 1.1089 -2.72345
lowerneck -19.5444 -10.4166 -3.22243
upperneck 17.0934 -17.5379 17.0837
head 10.714 -6.45175 3.75325
rclavicle -6.41081e-015 3.65764e-014
rhumerus 93.1721 33.1627 -77.7321
rradius 80.9004
rwrist 32.7631
rhand -22.017 -23.8885
rfingers 7.12502
rthumb 4.39237 306.177
lclavicle -6.41081e-015 3.65764e-014
lhumerus 86.5374 -12.1444 92.2178
lradius 95.8462
lwrist 42.3646
lhand -27.2481 -25.129
lfingers 7.12502
lthumb -0.659663 4.84968
rfemur -1.95384 24.6172 28.2394
rtibia -0.506493
rfoot -13.5008 -26.3945
rtoes 8.488
lfemur -1.84653 -41.4621 -7.21079
ltibia -2.48833
lfoot -14.1468 44.4043
ltoes -0.103122
614
root -0.927307 17.7799 8.21903 11.1802 7.75405 -8.24958
lowerback 9.21106 1.67163 5.44328
upperback -11.9953 3.6277 1.58486
thorax -18.8259 1.07785 -2.10483
lowerneck -19.8945 -10.2245 -2.99325
upperneck 16.8706 -17.2113 16.8302
head 10.6096 -6.31387 3.67375
rclavicle 1.36167e-014 3.37934e-014
rhumerus 90.645 32.3956 -82.5787
rradius 75.6859
rwrist 31.5786
rhand -21.747 -25.5615
rfingers 7.12502
rthumb 4.65303 304.51
lclavicle 1.36167e-014 3.37934e-014
lhumerus 85.7697 -13.2358 93.1266
lradius 88.6532
lwrist 41.7929
lhand -26.567 -25.4173
lfingers 7.12502
lthumb -0.00190118 4.56244
rfemur -2.46976 24.2511 28.0676
rtibia -0.320481
rfoot -13.1903 -26.3057
rtoes 8.48039
lfemur -2.70213 -41.0427 -6.65974
ltibia -2.24411
lfoot -13.4585 43.826
ltoes -0.454766
615
root -0.916885 17.7939 8.13862 11.173 8.11823 -8.32297
lowerback 9.80743 1.49903 5.07278
upperback -11.3707 3.372 1.89206
thorax -18.4643 1.05786 -1.50018
lowerneck -20.2775 -10.076 -2.8299
upperneck 16.6994 -16.9403 16.5676
head 10.5427 -6.2009 3.59065
rclavicle -2.22142e-014 -7.95139e-016
rhumerus 88.2995 31.1923 -86.9875
rradius 70.4361
rwrist 30.3198
rhand -21.415 -27.4774
rfingers 7.12502
rthumb 4.97364 302.601
lclavicle -2.22142e-014 -7.95139e-016
lhumerus 84.9507 -14.2138 93.9739
lradius 81.4549
lwrist 40.8212
lhand -26.2707 -25.8866
lfingers 7.12502
lthumb 0.284286 4.09294
rfemur -2.95649 23.8294 27.9129
rtibia -0.108328
rfoot -12.8351 -26.233
rtoes 8.43839
lfemur -3.57854 -40.4874 -6.12055
ltibia -1.9543
lfoot -12.5969 43.0579
ltoes -1.0996
616
root -0.905172 17.8093 8.05214 11.1045 8.54175 -8.407
lowerback 10.3996 1.33509 4.73755
upperback -10.6703 3.13197 2.22932
thorax -18.002 1.04107 -0.883994
lowerneck -20.7163 -9.94389 -2.67767
upperneck 16.5777 -16.6831 16.229
head 10.4984 -6.09707 3.47921
rclavicle -6.78353e-015 3.62782e-014
rhumerus 86.1662 29.6734 -90.8605
rradius 65.3129
rwrist 28.914
rhand -21.0348 -29.6257
rfingers 7.12502
rthumb 5.34075 300.462
lclavicle -6.78353e-015 3.62782e-014
lhumerus 84.1032 -15.0237 94.6926
lradius 74.3762
lwrist 39.4962
lhand -26.3492 -26.3241
lfingers 7.12502
lthumb 0.208499 3.65557
rfemur -3.41637 23.3562 27.7788
rtibia 0.133031
rfoot -12.404 -26.1666
rtoes 8.31172
lfemur -4.44863 -39.8528 -5.60746
ltibia -1.62561
lfoot -11.659 42.1583
ltoes -1.90199
